# xmcd
#
# Track frame offsets:
# 150
# 12352
# 36880
# 68441
# 107811
# 129911
# 161370
# 179444
#
# Disc length: 2557 seconds
#
# Revision: 0
# Processed by: cddbd v1.4PL0 Copyright (c) Steve Scherf et al.
# Submitted via: Audion 3.0.2 (http://www.panic.com/audion/)
#
DISCID=5c09fb08
DTITLE=Landing - Seasons
DYEAR=1900
DGENRE=
TTITLE0=Fall Song
TTITLE1=Encircled (Through Fallen Leaves)
TTITLE2=First Snow
TTITLE3=Ruins of the Morning (So Cold)
TTITLE4=Clarke Street
TTITLE5=Can't Hide Forever (Into the Woods)
TTITLE6=In A Car
TTITLE7=Blue Sky Away
EXTD=
EXTT0=
EXTT1=
EXTT2=
EXTT3=
EXTT4=
EXTT5=
EXTT6=
EXTT7=
PLAYORDER=
